<svg width="146" height="41" viewBox="0 0 146 41" fill="none" xmlns="http://www.w3.org/2000/svg">
<g clip-path="url(#clip0_1_13)">
<path d="M53.2168 22.4699L51.33 26.8241H46.584L56.0325 5.05322H60.7641L70.2127 26.8241H65.4811L63.5943 22.4699H53.2168ZM61.693 18.1158L58.3983 10.525L55.1037 18.1158H61.693Z" fill="white"/>
<path d="M94.8863 5.05322L85.4378 26.8241H80.7062L71.2577 5.05322H76.0037L83.072 21.3524L90.1548 5.05322H94.8863Z" fill="white"/>
<path d="M101.926 22.4699H119.342V26.8241H97.5714V5.05322H119.342V9.4074H101.926V13.7616H119.342V18.1158H101.926V22.4699Z" fill="white"/>
<path d="M145.467 22.4699V26.8241H123.696V5.05322H128.051V22.4699H145.467Z" fill="white"/>
<path d="M91.5725 32.7625V38.8889H90.6973V36.1583H87.1789V38.8889H86.3037V32.7625H87.1789V35.3968H90.6973V32.7625H91.5725ZM96.2507 38.2063C96.805 38.2063 97.2513 38.0195 97.5897 37.6461L98.0449 38.1887C97.8406 38.4338 97.581 38.6205 97.2659 38.7489C96.9567 38.8772 96.6095 38.9414 96.2244 38.9414C95.7343 38.9414 95.2996 38.8422 94.9204 38.6439C94.5411 38.4396 94.2465 38.1567 94.0364 37.7949C93.8322 37.4332 93.7301 37.0247 93.7301 36.5696C93.7301 36.1203 93.8293 35.7148 94.0276 35.3531C94.2319 34.9913 94.509 34.7113 94.8591 34.5129C95.215 34.3087 95.6147 34.2066 96.0581 34.2066C96.4782 34.2066 96.8604 34.3028 97.2047 34.4954C97.5489 34.6821 97.8231 34.9476 98.0273 35.2918C98.2316 35.6361 98.3366 36.0328 98.3424 36.4821L94.6578 37.1998C94.7745 37.5207 94.97 37.7686 95.2442 37.9437C95.5243 38.1187 95.8597 38.2063 96.2507 38.2063ZM96.0581 34.9155C95.7664 34.9155 95.5038 34.9826 95.2704 35.1168C95.0429 35.251 94.8649 35.4406 94.7366 35.6857C94.6082 35.9249 94.544 36.2049 94.544 36.5259V36.6134L97.511 36.0532C97.4351 35.7148 97.2659 35.4406 97.0034 35.2305C96.7408 35.0205 96.4257 34.9155 96.0581 34.9155ZM101.802 38.9414C101.353 38.9414 101.006 38.8189 100.761 38.5738C100.516 38.3229 100.393 37.9729 100.393 37.5236V32.3949H101.233V37.4536C101.233 37.7045 101.292 37.897 101.408 38.0312C101.531 38.1654 101.712 38.2325 101.951 38.2325C102.097 38.2325 102.234 38.2033 102.362 38.145L102.406 38.8364C102.214 38.9064 102.012 38.9414 101.802 38.9414ZM106.54 34.2066C106.989 34.2066 107.391 34.3057 107.747 34.5041C108.103 34.7025 108.38 34.9797 108.579 35.3356C108.783 35.6915 108.885 36.1028 108.885 36.5696C108.885 37.0364 108.783 37.4507 108.579 37.8124C108.38 38.1683 108.103 38.4455 107.747 38.6439C107.391 38.8422 106.989 38.9414 106.54 38.9414C106.207 38.9414 105.901 38.8772 105.621 38.7489C105.346 38.6205 105.113 38.4338 104.92 38.1887V40.5868H104.08V34.2503H104.885V34.9855C105.072 34.7288 105.308 34.5362 105.594 34.4079C105.88 34.2737 106.195 34.2066 106.54 34.2066ZM106.47 38.2063C106.767 38.2063 107.033 38.1392 107.266 38.005C107.505 37.8649 107.692 37.6724 107.826 37.4273C107.966 37.1764 108.036 36.8905 108.036 36.5696C108.036 36.2487 107.966 35.9657 107.826 35.7207C107.692 35.4698 107.505 35.2772 107.266 35.143C107.033 35.0088 106.767 34.9417 106.47 34.9417C106.178 34.9417 105.912 35.0117 105.673 35.1518C105.44 35.286 105.253 35.4756 105.113 35.7207C104.979 35.9657 104.912 36.2487 104.912 36.5696C104.912 36.8905 104.979 37.1764 105.113 37.4273C105.247 37.6724 105.434 37.8649 105.673 38.005C105.912 38.1392 106.178 38.2063 106.47 38.2063ZM116.055 38.9589C115.594 38.9589 115.147 38.8889 114.716 38.7489C114.29 38.603 113.954 38.4163 113.709 38.1887L114.033 37.5061C114.266 37.7161 114.564 37.8883 114.926 38.0225C115.293 38.1508 115.67 38.215 116.055 38.215C116.562 38.215 116.942 38.1304 117.193 37.9612C117.443 37.7862 117.569 37.5557 117.569 37.2698C117.569 37.0597 117.499 36.8905 117.359 36.7622C117.225 36.628 117.055 36.5259 116.851 36.4558C116.653 36.3858 116.37 36.3071 116.002 36.2195C115.541 36.1087 115.168 35.9978 114.882 35.887C114.602 35.7761 114.36 35.6069 114.156 35.3793C113.957 35.1459 113.858 34.8338 113.858 34.4429C113.858 34.1161 113.943 33.8215 114.112 33.5589C114.287 33.2963 114.549 33.0863 114.9 32.9288C115.25 32.7712 115.684 32.6924 116.204 32.6924C116.565 32.6924 116.921 32.7391 117.271 32.8325C117.621 32.9258 117.922 33.06 118.173 33.2351L117.884 33.9352C117.627 33.7719 117.353 33.6493 117.061 33.5677C116.77 33.4801 116.484 33.4364 116.204 33.4364C115.708 33.4364 115.334 33.5268 115.083 33.7077C114.838 33.8886 114.716 34.122 114.716 34.4079C114.716 34.6179 114.786 34.79 114.926 34.9242C115.066 35.0526 115.238 35.1547 115.442 35.2305C115.652 35.3006 115.935 35.3764 116.291 35.4581C116.752 35.569 117.123 35.6798 117.403 35.7907C117.683 35.9015 117.922 36.0707 118.12 36.2983C118.324 36.5259 118.427 36.8322 118.427 37.2173C118.427 37.5382 118.339 37.8328 118.164 38.1012C117.989 38.3638 117.724 38.5738 117.368 38.7314C117.012 38.8831 116.574 38.9589 116.055 38.9589ZM124.834 34.2503V40.5868H123.994V38.1887C123.801 38.4338 123.565 38.6205 123.285 38.7489C123.011 38.8772 122.707 38.9414 122.375 38.9414C121.925 38.9414 121.523 38.8422 121.167 38.6439C120.811 38.4455 120.531 38.1683 120.327 37.8124C120.128 37.4507 120.029 37.0364 120.029 36.5696C120.029 36.1028 120.128 35.6915 120.327 35.3356C120.531 34.9797 120.811 34.7025 121.167 34.5041C121.523 34.3057 121.925 34.2066 122.375 34.2066C122.719 34.2066 123.034 34.2737 123.32 34.4079C123.606 34.5362 123.842 34.7288 124.029 34.9855V34.2503H124.834ZM122.445 38.2063C122.736 38.2063 123.002 38.1392 123.241 38.005C123.48 37.8649 123.667 37.6724 123.801 37.4273C123.935 37.1764 124.002 36.8905 124.002 36.5696C124.002 36.2487 123.932 35.9657 123.792 35.7207C123.658 35.4756 123.472 35.286 123.232 35.1518C122.999 35.0117 122.736 34.9417 122.445 34.9417C122.147 34.9417 121.879 35.0088 121.639 35.143C121.406 35.2772 121.219 35.4698 121.079 35.7207C120.945 35.9657 120.878 36.2487 120.878 36.5696C120.878 36.8905 120.945 37.1764 121.079 37.4273C121.219 37.6724 121.406 37.8649 121.639 38.005C121.879 38.1392 122.147 38.2063 122.445 38.2063ZM131.622 34.2503V38.8889H130.826V38.1887C130.657 38.428 130.432 38.6147 130.152 38.7489C129.878 38.8772 129.577 38.9414 129.251 38.9414C128.632 38.9414 128.145 38.7722 127.789 38.4338C127.433 38.0896 127.255 37.5849 127.255 36.9197V34.2503H128.095V36.8234C128.095 37.2727 128.203 37.614 128.419 37.8474C128.635 38.075 128.944 38.1887 129.347 38.1887C129.79 38.1887 130.14 38.0546 130.397 37.7862C130.654 37.5178 130.782 37.1385 130.782 36.6484V34.2503H131.622ZM138.473 34.2503V38.8889H137.668V38.1537C137.481 38.4105 137.245 38.6059 136.959 38.7401C136.673 38.8743 136.358 38.9414 136.014 38.9414C135.565 38.9414 135.162 38.8422 134.806 38.6439C134.45 38.4455 134.17 38.1683 133.966 37.8124C133.767 37.4507 133.668 37.0364 133.668 36.5696C133.668 36.1028 133.767 35.6915 133.966 35.3356C134.17 34.9797 134.45 34.7025 134.806 34.5041C135.162 34.3057 135.565 34.2066 136.014 34.2066C136.346 34.2066 136.653 34.2707 136.933 34.3991C137.213 34.5216 137.446 34.7054 137.633 34.9505V34.2503H138.473ZM136.084 38.2063C136.376 38.2063 136.641 38.1392 136.88 38.005C137.12 37.8649 137.306 37.6724 137.44 37.4273C137.575 37.1764 137.642 36.8905 137.642 36.5696C137.642 36.2487 137.575 35.9657 137.44 35.7207C137.306 35.4698 137.12 35.2772 136.88 35.143C136.641 35.0088 136.376 34.9417 136.084 34.9417C135.786 34.9417 135.518 35.0088 135.279 35.143C135.045 35.2772 134.859 35.4698 134.719 35.7207C134.584 35.9657 134.517 36.2487 134.517 36.5696C134.517 36.8905 134.584 37.1764 134.719 37.4273C134.859 37.6724 135.045 37.8649 135.279 38.005C135.518 38.1392 135.786 38.2063 136.084 38.2063ZM145.314 32.3949V38.8889H144.509V38.1537C144.322 38.4105 144.086 38.6059 143.8 38.7401C143.514 38.8743 143.199 38.9414 142.855 38.9414C142.406 38.9414 142.003 38.8422 141.647 38.6439C141.291 38.4455 141.011 38.1683 140.807 37.8124C140.608 37.4507 140.509 37.0364 140.509 36.5696C140.509 36.1028 140.608 35.6915 140.807 35.3356C141.011 34.9797 141.291 34.7025 141.647 34.5041C142.003 34.3057 142.406 34.2066 142.855 34.2066C143.187 34.2066 143.494 34.2707 143.774 34.3991C144.054 34.5216 144.287 34.7054 144.474 34.9505V32.3949H145.314ZM142.925 38.2063C143.217 38.2063 143.482 38.1392 143.721 38.005C143.96 37.8649 144.147 37.6724 144.281 37.4273C144.416 37.1764 144.483 36.8905 144.483 36.5696C144.483 36.2487 144.416 35.9657 144.281 35.7207C144.147 35.4698 143.96 35.2772 143.721 35.143C143.482 35.0088 143.217 34.9417 142.925 34.9417C142.627 34.9417 142.359 35.0088 142.12 35.143C141.886 35.2772 141.7 35.4698 141.559 35.7207C141.425 35.9657 141.358 36.2487 141.358 36.5696C141.358 36.8905 141.425 37.1764 141.559 37.4273C141.7 37.6724 141.886 37.8649 142.12 38.005C142.359 38.1392 142.627 38.2063 142.925 38.2063Z" fill="#21B07D"/>
<path fill-rule="evenodd" clip-rule="evenodd" d="M1.80153 0.522461C0.806572 0.522461 0 1.32903 0 2.32399V5.05322H17.0213H21.3568H31.5353C36.3732 5.05322 38.7922 7.23031 38.7922 11.5845C38.7922 15.9387 36.3732 18.1158 31.5353 18.1158H30.1855L40.4033 26.8241H33.7123L23.4945 18.1158H21.3755V31.5225H42.1985C43.1934 31.5225 44 30.7159 44 29.7209V2.32399C44 1.32903 43.1934 0.522461 42.1985 0.522461H1.80153ZM17.0213 31.5225V13.7849H22.9476V13.7616H30.8096C33.2285 13.7616 34.438 13.0359 34.438 11.5845C34.438 10.1331 33.2285 9.4074 30.8096 9.4074H21.3755V9.43848H17.0213V9.4074H12.6485V26.8241H8.29429V9.4074H0V29.7209C0 30.7159 0.806573 31.5225 1.80153 31.5225H17.0213Z" fill="#21B07D"/>
</g>
<defs>
<clipPath id="clip0_1_13">
<rect width="146" height="40.4107" fill="white"/>
</clipPath>
</defs>
</svg>
